<?xml version="1.0" encoding="utf-8"?>
<!-- Generator: Adobe Illustrator 22.0.0, SVG Export Plug-In . SVG Version: 6.00 Build 0)  -->
<svg version="1.1" id="Layer_1" xmlns="http://www.w3.org/2000/svg" xmlns:xlink="http://www.w3.org/1999/xlink" x="0px" y="0px"
	 viewBox="0 0 500 500" style="enable-background:new 0 0 500 500;" xml:space="preserve">
<style type="text/css">
	.st0{fill:#4D4D4D;}
</style>
<path class="st0" d="M139.7,283c34.8-21.9,69.5-43.7,104.3-65.6c3.7-2.3,11.1-7.1,11.1-7.1s65.8,41.3,100.6,63.2
	c5,3.1,10,6.3,15,9.4c8.2,5.2,15.7-7.8,7.6-13c-34.8-21.9-69.5-43.7-104.3-65.6c-5-3.1-10-6.3-15-9.4c-2.2-1.4-5.4-1.4-7.6,0
	c-34.8,21.9-69.5,43.7-104.3,65.6c-5,3.1-10,6.3-15,9.4C123.9,275.1,131.5,288.1,139.7,283L139.7,283z"/>
</svg>
